<?xml version="1.0" encoding="UTF-8"?>
<svg id="_レイヤー_2" data-name="レイヤー 2" xmlns="http://www.w3.org/2000/svg" viewBox="0 0 58.9 392.26">
  <defs>
    <style>
      .cls-1 {
        fill: #fff;
        stroke-width: 0px;
      }
    </style>
  </defs>
  <g id="design">
    <g>
      <path class="cls-1" d="M52.1,19.28c2.25,0,2.96-.41,3.49-3.73.06-.36.18-.41.41-.41h1c.24,0,.36.12.41.47.47,2.31,1.01,5.38,1.24,6.51.06.53.18.95.18,1.36,0,.3-.41.35-1.06.3-2.96-.18-11.53-.24-19.04-.24h-13.07c-2.19,0-4.79.12-5.38.59-.59.53-.95,1.77-1.01,2.6-.06.83-.12,1.06-.41,1.18l-.47.12c-.35.06-.53-.06-.65-.41l-2.25-6.68c-.12-.35.06-.65.47-.77l2.6-.77c-1.89-1.89-3.19-5.68-3.19-8.69,0-1.95-.12-4.2,2.72-6.98,2.96-3.02,5.62-3.73,9.58-3.73,3.67,0,7.27,1.36,10.05,4.14,2.48,2.31,3.73,5.5,3.73,8.81,0,2.42-.35,4.55-.89,6.33h11.53ZM33.35,19.28c.83,0,1.95,0,2.9-.53,1.6-.83,3.19-2.72,3.19-6.21,0-1.83-.53-3.84-2.13-5.38-2.48-2.31-5.62-2.72-7.87-2.72-6.68,0-11.53,4.61-11.53,8.04s1.72,5.86,3.25,6.45c.89.3,1.36.36,2.01.36h10.17Z"/>
      <path class="cls-1" d="M31.82,35.42c-.53-.12-1.48-.18-2.84-.18-5.8,0-10.17,3.67-10.17,8.4,0,3.61,2.07,6.15,4.02,7.16.24.12.35.35.3.53l-.41.77c-.06.18-.24.3-.89,0-2.37-1.06-6.45-4.14-6.45-9.4,0-3.37,1.01-7.1,4.2-9.28,3.02-2.07,5.2-2.6,9.34-2.6,2.31,0,6.27.59,9.4,3.73,2.6,2.54,3.13,5.5,3.13,8.46,0,6.8-6.39,8.69-8.69,8.69-.83,0-.95-.71-.95-1.66v-14.61ZM33.59,44.83c0,1.12.3,1.6.83,1.6,1.36,0,5.26-.71,5.26-4.55,0-2.6-1.71-5.09-6.09-6.21v9.17Z"/>
      <path class="cls-1" d="M17.09,57.66c.18-.3.53-.3.83-.35l5.62-1.01c.3-.06.41.12.47.35l.18.77c.06.24-.06.41-.35.53l-2.9,1.48c-2.19,1.18-3.67,2.01-3.67,5.15,0,2.07,1.24,4.67,4.02,4.67s4.2-1.3,5.44-5.74c1.01-3.49,2.84-6.98,7.51-6.98,4.08,0,7.21,3.84,7.21,8.28,0,2.84-.71,4.38-1.24,5.44-.41.89-.71,1.01-1.06,1.06l-4.14.89c-.24,0-.41-.12-.53-.41l-.24-.71c-.06-.24,0-.35.3-.53l2.72-2.01c1.12-.71,2.31-1.83,2.31-4.14s-1.36-4.55-3.9-4.55c-3.43,0-4.08,2.78-4.91,5.68-1.24,4.32-3.02,7.04-7.57,7.1-4.79-.06-7.81-3.96-7.81-8.99,0-2.9,1.18-5.26,1.72-5.97Z"/>
      <path class="cls-1" d="M33.3,80.9c2.01,0,3.07-.35,3.55-3.31.06-.41.18-.53.41-.53h.53c.18,0,.3.12.41.41.71,1.89,1.66,4.14,2.9,6.39.24.47.35.77.35,1.12,0,.3-.3.35-.71.3-1.01-.12-4.73-.12-9.64-.12h-6.45c-2.31,0-4.44,0-5.09.06-1.12.12-1.54.3-1.54.95v2.72c0,.47-.18.59-.53.59h-1.01c-.41,0-.59-.12-.59-.53,0-.47.18-3.19.18-5.68,0-3.43-.18-5.74-.18-6.39,0-.3.12-.47.47-.47h1.18c.35,0,.47.18.47.59v2.9c0,.65.24.89,1.18.95,1.77.06,3.61.06,5.38.06h8.69ZM51.33,78.23c1.48,0,3.08,1.24,3.08,3.61,0,2.07-1.6,3.08-2.9,3.08-1.54,0-3.25-1.06-3.25-3.43,0-1.3,1.18-3.25,3.07-3.25Z"/>
      <path class="cls-1" d="M1.89,94.5c1.3-2.13,2.84-3.02,4.79-3.02,3.31,0,5.85,3.37,7.1,6.21h.24c.53-2.48,2.37-3.96,4.14-3.96,2.84,0,4.85,3.25,5.62,5.32h.12c1.01-2.31,3.73-5.5,8.99-5.5,3.84,0,8.57,3.43,8.57,10.11,0,4.49-2.72,6.86-3.43,7.45,1.12,1.6,2.31,3.61,2.31,5.56s-1.3,2.9-2.48,2.78c-1.12,0-2.19-.95-2.19-2.31,0-1.01.47-1.6.89-2.07.24-.35.53-.77.53-1.24,0-.41,0-1.12-.36-1.89-1.18.47-2.48.89-4.49.89-2.31,0-4.55-.65-6.39-2.19-1.71-1.54-2.96-4.91-2.96-6.86,0-1.3.06-2.13.3-3.02-.47-1.18-1.66-3.13-3.31-3.13-2.42,0-2.25,2.96-2.01,6.92.24,4.85-.3,7.81-2.13,10.17-1.89,2.54-4.26,2.84-5.68,2.9-2.78,0-5.09-1.01-7.27-3.96C1.66,112.12,0,108.57,0,103.55,0,100.71.3,97.34,1.89,94.5ZM7.98,114.01c3.49,0,6.15-2.66,5.74-8.58l-.41-5.68c-.47-1.83-2.48-4.73-5.68-4.73-1.48,0-3.25,1.12-4.08,2.31-1.36,1.95-1.66,4.08-1.66,8.28,0,2.19,1.54,8.69,6.09,8.4ZM33.18,108.51c2.6,0,4.14-.53,5.32-1.6.77-.77,1.3-1.95,1.3-2.84,0-1.36-.24-2.78-1.66-4.2-2.01-1.89-4.73-2.13-6.98-2.13-2.01,0-3.84.65-5.15,1.89-1.01,1.06-1.48,2.13-1.48,3.55,0,4.02,4.91,5.32,8.63,5.32Z"/>
      <path class="cls-1" d="M19.28,145.83c-.95,0-1.24.53-1.24,1.3v1.89c0,.53-.18.65-.53.65h-.95c-.41,0-.65-.12-.65-.47,0-.41.18-2.25.18-5.62,0-3.02-.18-4.91-.18-5.32,0-.35.18-.47.65-.47h.95c.41,0,.53.18.53.77v1.72c0,.65.3,1.12,1.36,1.18,1.54.06,3.43.12,4.97.12h7.81c2.37,0,4.08,0,5.32-1.71,1.06-1.42,1.06-2.84,1.06-4.32,0-.95-.41-3.02-2.31-4.79-1.3-1.18-2.9-1.36-4.02-1.36h-12.24c-1.6,0-1.95.18-1.95,1.42v1.48c0,.47-.18.59-.59.59h-1.01c-.35,0-.53-.12-.53-.41,0-.41.18-2.01.18-5.15s-.18-4.91-.18-5.26c0-.3.18-.41.53-.41h1.06c.35,0,.53.12.53.59v1.71c0,.77.18,1.18,1.18,1.18h13.84c1.77,0,2.78-.95,3.49-2.42l.24-.47c.18-.41.35-.47.53-.47h.3c.3,0,.47.24.59.53l2.84,5.09c.24.47.41.83.41,1.06,0,.3-.24.41-.71.47l-3.61.41v.12c2.13,1.71,4.32,5.15,4.32,8.1,0,1.77-.35,3.61-1.3,5.03-1.18,1.77-4.14,3.25-5.62,3.25h-15.26Z"/>
      <path class="cls-1" d="M1.89,154.64c1.3-2.13,2.84-3.02,4.79-3.02,3.31,0,5.85,3.37,7.1,6.21h.24c.53-2.48,2.37-3.96,4.14-3.96,2.84,0,4.85,3.25,5.62,5.32h.12c1.01-2.31,3.73-5.5,8.99-5.5,3.84,0,8.57,3.43,8.57,10.11,0,4.49-2.72,6.86-3.43,7.45,1.12,1.6,2.31,3.61,2.31,5.56s-1.3,2.9-2.48,2.78c-1.12,0-2.19-.95-2.19-2.31,0-1.01.47-1.6.89-2.07.24-.35.53-.77.53-1.24,0-.41,0-1.12-.36-1.89-1.18.47-2.48.89-4.49.89-2.31,0-4.55-.65-6.39-2.19-1.71-1.54-2.96-4.91-2.96-6.86,0-1.3.06-2.13.3-3.02-.47-1.18-1.66-3.13-3.31-3.13-2.42,0-2.25,2.96-2.01,6.92.24,4.85-.3,7.81-2.13,10.17-1.89,2.54-4.26,2.84-5.68,2.9-2.78,0-5.09-1.01-7.27-3.96-1.12-1.54-2.78-5.09-2.78-10.11,0-2.84.3-6.21,1.89-9.05ZM7.98,174.15c3.49,0,6.15-2.66,5.74-8.58l-.41-5.68c-.47-1.83-2.48-4.73-5.68-4.73-1.48,0-3.25,1.12-4.08,2.31-1.36,1.95-1.66,4.08-1.66,8.28,0,2.19,1.54,8.69,6.09,8.4ZM33.18,168.65c2.6,0,4.14-.53,5.32-1.6.77-.77,1.3-1.95,1.3-2.84,0-1.36-.24-2.78-1.66-4.2-2.01-1.89-4.73-2.13-6.98-2.13-2.01,0-3.84.65-5.15,1.89-1.01,1.06-1.48,2.13-1.48,3.55,0,4.02,4.91,5.32,8.63,5.32Z"/>
      <path class="cls-1" d="M31.82,185.21c3.02,0,3.61-.47,4.49-2.13l.59-1.12c.12-.36.18-.47.41-.47h.35c.24,0,.36.12.53.47l3.02,5.85c.18.36.24.59.24.83,0,.35-.35.41-.71.41l-4.08.3v.24c2.72,1.77,5.15,4.55,5.15,7.1,0,2.01-1.24,3.02-2.6,3.02-1.71,0-2.9-1.42-2.9-2.48,0-.65.24-1.24.47-1.72.3-.47.47-1.18.47-1.95,0-.95-.59-2.48-2.48-3.49-.65-.36-1.72-.59-1.89-.59h-12.42c-1.83,0-2.42.41-2.42,1.66v2.78c0,.36-.18.41-.53.41h-1.06c-.35,0-.53-.06-.53-.3,0-.35.18-3.07.18-6.27,0-3.67-.18-6.15-.18-6.51,0-.24.12-.35.59-.35h1.01c.41,0,.53.12.53.65v2.31c0,.89.35,1.3,1.12,1.3,1.95.06,4.02.06,7.1.06h5.56Z"/>
      <path class="cls-1" d="M19.46,204.96c3.25-2.72,5.44-3.25,9.64-3.25,3.02,0,6.8,1.6,9.52,5.09,2.37,3.08,2.84,5.97,2.84,7.92,0,3.25-1.66,6.51-3.43,8.28-2.72,2.66-5.8,4.02-9.64,4.02-6.45,0-13.01-5.8-13.01-13.07,0-2.84,1.12-6.51,4.08-8.99ZM28.98,222.05c6.56,0,10.7-4.79,10.7-7.81,0-1.6-.35-3.13-1.89-4.55-2.37-2.31-4.79-3.13-9.28-3.13-3.31,0-5.56.36-8.28,2.25-1.95,1.36-3.07,3.08-3.07,5.85,0,4.49,5.5,7.39,11.83,7.39Z"/>
      <path class="cls-1" d="M28.09,253.74c-2.84,0-5.74,0-6.98.12-1.83.18-2.07.83-2.07,1.54,0,.36,0,1.24.18,1.95.12.47,0,.65-.24.71l-.77.18c-.35.06-.47-.06-.53-.3l-2.07-6.21c-.12-.35-.24-.71-.24-1.18,0-.24.12-.47.71-.53l3.43-.47v-.12c-2.31-1.66-4.14-5.09-4.14-8.04,0-1.66.18-3.61,2.72-5.56,3.13-2.42,5.09-2.31,11.59-2.31h6.86c1.66-.06,2.07-.89,2.25-2.25.06-1,.12-1.3.41-1.3h1.06c.35,0,.47.12.47.65v5.26c0,.35.06.59.12.83,0,.24.06.47.06.65,0,.41-.3.71-.71.65-.53-.06-3.31-.24-6.8-.24h-4.2c-2.37,0-6.15-.59-8.87,1.3-2.13,1.48-2.25,3.13-2.25,4.73s1.54,3.96,2.96,5.09c.3.24,1.06.59,1.6.59h14.08c1.66-.12,1.95-1.06,2.07-2.54,0-1.01.12-1.3.41-1.3h1.01c.47,0,.53.12.53.71v5.5c0,.41.06.71.12,1.01,0,.3.06.53.06.71,0,.36-.3.59-.59.53-.53-.06-2.07-.35-7.87-.35h-4.38Z"/>
      <path class="cls-1" d="M19.28,285.5c-.95,0-1.24.53-1.24,1.3v1.89c0,.53-.18.65-.53.65h-.95c-.41,0-.65-.12-.65-.47,0-.41.18-2.25.18-5.62,0-3.02-.18-4.91-.18-5.32,0-.35.18-.47.65-.47h.95c.41,0,.53.18.53.77v1.72c0,.65.3,1.12,1.36,1.18,1.54.06,3.43.12,4.97.12h7.81c2.37,0,4.08,0,5.32-1.71,1.06-1.42,1.06-2.84,1.06-4.32,0-.95-.41-3.02-2.31-4.79-1.3-1.18-2.9-1.36-4.02-1.36h-12.24c-1.6,0-1.95.18-1.95,1.42v1.48c0,.47-.18.59-.59.59h-1.01c-.35,0-.53-.12-.53-.41,0-.41.18-2.01.18-5.15s-.18-4.91-.18-5.26c0-.3.18-.41.53-.41h1.06c.35,0,.53.12.53.59v1.71c0,.77.18,1.18,1.18,1.18h13.84c1.77,0,2.78-.95,3.49-2.42l.24-.47c.18-.41.35-.47.53-.47h.3c.3,0,.47.24.59.53l2.84,5.09c.24.47.41.83.41,1.06,0,.3-.24.41-.71.47l-3.61.41v.12c2.13,1.71,4.32,5.15,4.32,8.1,0,1.77-.35,3.61-1.3,5.03-1.18,1.77-4.14,3.25-5.62,3.25h-15.26Z"/>
      <path class="cls-1" d="M52.1,311.93c2.25,0,2.96-.42,3.49-3.73.06-.36.18-.41.41-.41h1c.24,0,.36.12.41.47.47,2.31,1.01,5.38,1.24,6.51.06.53.18.95.18,1.36,0,.3-.41.36-1.06.3-2.96-.18-11.53-.24-19.04-.24h-13.07c-2.19,0-4.79.12-5.38.59-.59.53-.95,1.77-1.01,2.6-.06.83-.12,1.06-.41,1.18l-.47.12c-.35.06-.53-.06-.65-.41l-2.25-6.68c-.12-.36.06-.65.47-.77l2.6-.77c-1.89-1.89-3.19-5.68-3.19-8.69,0-1.95-.12-4.2,2.72-6.98,2.96-3.02,5.62-3.73,9.58-3.73,3.67,0,7.27,1.36,10.05,4.14,2.48,2.31,3.73,5.5,3.73,8.81,0,2.42-.35,4.55-.89,6.33h11.53ZM33.35,311.93c.83,0,1.95,0,2.9-.53,1.6-.83,3.19-2.72,3.19-6.21,0-1.83-.53-3.84-2.13-5.38-2.48-2.31-5.62-2.72-7.87-2.72-6.68,0-11.53,4.61-11.53,8.04s1.72,5.86,3.25,6.45c.89.3,1.36.36,2.01.36h10.17Z"/>
      <path class="cls-1" d="M41.52,344.63c.12,1.48-.3,5.44-.65,6.74-1.54,5.79-5.68,9.11-11,9.11-8.46.06-14.67-6.86-14.67-14.9,0-4.38,1.6-7.69,3.31-7.69.83,0,1.54.53,1.54,1.3,0,1.06-.65,2.07-1.18,2.96-.53.89-1.12,2.9-1.12,4.67,0,4.61,3.9,9.23,9.11,9.23,4.14,0,7.39-1.36,9.05-5.2,1.42-3.19,1.42-6.15,1.3-7.69-.06-.36-.12-.65.12-1.06.12-.3.3-.36.65-.3l16.68,2.13c.71.06.95.18.95.95v12.66c0,2.07,1,2.6,2.96,3.61.35.18.41.35.3.71-.3.65-.36.95-.71.83l-5.91-2.13c-.95-.41-1.18-.71-1.18-2.54v-12.3l-9.52-1.06Z"/>
      <path class="cls-1" d="M41.52,374.2c.12,1.48-.3,5.44-.65,6.74-1.54,5.79-5.68,9.11-11,9.11-8.46.06-14.67-6.86-14.67-14.9,0-4.38,1.6-7.69,3.31-7.69.83,0,1.54.53,1.54,1.3,0,1.06-.65,2.07-1.18,2.96-.53.89-1.12,2.9-1.12,4.67,0,4.61,3.9,9.23,9.11,9.23,4.14,0,7.39-1.36,9.05-5.2,1.42-3.19,1.42-6.15,1.3-7.69-.06-.36-.12-.65.12-1.06.12-.3.3-.36.65-.3l16.68,2.13c.71.06.95.18.95.95v12.66c0,2.07,1,2.6,2.96,3.61.35.18.41.35.3.71-.3.65-.36.95-.71.83l-5.91-2.13c-.95-.41-1.18-.71-1.18-2.54v-12.3l-9.52-1.06Z"/>
    </g>
  </g>
</svg>